<?xml version="1.0" encoding="UTF-8" standalone="no"?>
<svg
   width="200"
   height="200"
   viewBox="-1 -1 26 26"
   version="1.1"
   id="svg3"
   sodipodi:docname="wiseknit_owl.svg"
   inkscape:version="1.4.3 (0d15f75, 2025-12-25)"
   xmlns:inkscape="http://www.inkscape.org/namespaces/inkscape"
   xmlns:sodipodi="http://sodipodi.sourceforge.net/DTD/sodipodi-0.dtd"
   xmlns="http://www.w3.org/2000/svg"
   xmlns:svg="http://www.w3.org/2000/svg">
  <defs id="defs3">
    <pattern id="tealPattern" patternUnits="userSpaceOnUse" width="2.5" height="1.25">
      <rect width="2.5" height="1.25" fill="#0f2d4a"/>
      <path fill="#5de8ff" stroke="none" d="M 1.25,1.25 C 1.25,0.5 1.75,0 2.5,0 2.5,0.75 2,1.25 1.25,1.25 Z M 0,0 C 0,0.75 0.5,1.25 1.25,1.25 1.25,0.5 0.75,0 0,0 Z"/>
    </pattern>
  </defs>
  <sodipodi:namedview
     id="namedview3"
     pagecolor="#ffffff"
     bordercolor="#000000"
     borderopacity="0.25"
     inkscape:showpageshadow="2"
     inkscape:pageopacity="0.0"
     inkscape:pagecheckerboard="0"
     inkscape:deskcolor="#d1d1d1"
     inkscape:zoom="2.475"
     inkscape:cx="100"
     inkscape:cy="100.80808"
     inkscape:window-width="1366"
     inkscape:window-height="697"
     inkscape:window-x="-8"
     inkscape:window-y="-8"
     inkscape:window-maximized="1"
     inkscape:current-layer="svg3" />
  <!-- WiseKnit Owl mark — editable in Inkscape -->
  <g
     id="owl"
     transform="translate(-0.5529225,0.22473291)">
    <!-- Body/head — single closed path, teal fill -->
    <path
       id="body"
       d="M 12.553,22.680802
          l -9.177242,0.052530
          c -1,0 -1.0008083,-2.012848 -0.8444445,-5.416162
          C 2.3917308,11.835411 6.5238675,9.4432116 5.8191919,8.8636363
            4.2544323,7.3113232 6.3385532,2.9113353 7.2121212,0.81717172
          L 12.553,3.1909091
          L 17.893724,0.81717172
          C 18.767292,2.9113353 20.851413,7.3113232 19.286653,8.8636363
          C 18.581978,9.4432116 22.714114,11.835411 22.574532,17.317170
          C 22.730895,20.720484 22.730087,22.733332 21.730087,22.733332
          Z"
       fill="url(#tealPattern)"
       stroke="#e8c84a"
       stroke-width="1.8"
       stroke-linecap="round"
       stroke-linejoin="round" />
    <!-- Left wing area — bounded by left body outline and wing curve, filled gold -->
    <path
       id="wing-left"
       d="M 3.375758,22.733332
          c -1,0 -1.0008083,-2.012848 -0.8444445,-5.416162
          C 2.3917308,11.835411 6.5238675,9.4432116 5.8191919,8.8636363
          L 6.1252529,9.2666663
          C 9.3558103,13.436729 7.3716825,20.650587 3.5747478,22.626262
          Z"
       fill="#e8c84a"
       stroke="none" />
    <!-- Right wing area — bounded by right body outline and wing curve, filled gold -->
    <path
       id="wing-right"
       d="M 21.730087,22.733332
          C 22.730087,22.733332 22.730895,20.720484 22.574532,17.317170
          C 22.714114,11.835411 18.581978,9.4432116 19.286653,8.8636363
          L 18.980591,9.2666663
          C 15.750034,13.436729 17.734162,20.650587 21.531096,22.626262
          Z"
       fill="#e8c84a"
       stroke="none" />
    <!-- Wing boundary lines — gold stroke over the fill areas -->
    <path
       id="wing-left-line"
       d="M 6.1252529,9.2666663 C 9.3558103,13.436729 7.3716825,20.650587 3.5747478,22.626262"
       fill="none"
       stroke="#e8c84a"
       stroke-width="1.8"
       stroke-linecap="round"
       stroke-linejoin="round" />
    <path
       id="wing-right-line"
       d="M 18.980591,9.2666663 C 15.750034,13.436729 17.734162,20.650587 21.531096,22.626262"
       fill="none"
       stroke="#e8c84a"
       stroke-width="1.8"
       stroke-linecap="round"
       stroke-linejoin="round" />
  </g>
</svg>
