<svg xmlns="http://www.w3.org/2000/svg" width="32" height="32" viewBox="-1 -1 26 26">
  <defs>
    <pattern id="teal" patternUnits="userSpaceOnUse" width="2.5" height="1.25">
      <rect width="2.5" height="1.25" fill="#0f2d4a"/>
      <path fill="#5de8ff" stroke="none" d="M 1.25,1.25 C 1.25,0.5 1.75,0 2.5,0 2.5,0.75 2,1.25 1.25,1.25 Z M 0,0 C 0,0.75 0.5,1.25 1.25,1.25 1.25,0.5 0.75,0 0,0 Z"/>
    </pattern>
  </defs>
  <rect x="-1" y="-1" width="26" height="26" rx="6" fill="#0D1B2A"/>
  <path d="M7 21 Q5.5 21 5 18 C8 15 9.5 8 7.5 6.5 L8 1.5 L11 6.5 Q12 6 13 6.5 L16 1.5 L16.5 6.5 C14.5 8 15 15 19 18 Q18.5 21 17 21 Q12 23 7 21 Z" fill="url(#teal)" stroke="#e8c84a" stroke-width="1.8" stroke-linecap="round" stroke-linejoin="round"/>
  <path d="M8 11 Q6.5 16 9.5 20" fill="none" stroke="#e8c84a" stroke-width="1.8" stroke-linecap="round" stroke-linejoin="round"/>
  <path d="M16 11 Q17.5 16 14.5 20" fill="none" stroke="#e8c84a" stroke-width="1.8" stroke-linecap="round" stroke-linejoin="round"/>
</svg>
